<svg width="560" height="273" viewBox="0 0 560 273" fill="none" xmlns="http://www.w3.org/2000/svg">
<path fill-rule="evenodd" clip-rule="evenodd" d="M6.9464 128.177C36.7097 56.4421 55.4264 40.3646 83.1054 17.1175C110.784 -6.1297 415.754 -1.89661 446.83 7.61043C454.561 9.97558 462.97 11.5384 471.429 13.1105C496.971 17.8579 522.975 22.6909 532.181 49.96C534.301 56.2397 536.941 63.1965 539.743 70.5827C553.14 105.892 570.26 151.016 552.162 178.891C542.525 193.733 526.81 199.968 511.266 206.135C491.508 213.974 472.028 221.703 465.659 246.856C454.279 291.798 115.495 268.622 83.1054 252.201C82.604 251.946 82.0928 251.688 81.5722 251.424C48.4642 234.66 -22.3562 198.802 6.9464 128.177Z" fill="#FDFDFD" fill-opacity="0.75"/>
</svg>
